<svg width="247" height="36" viewBox="0 0 247 36" fill="none" xmlns="http://www.w3.org/2000/svg">
<rect x="16.364" y="3" width="22.5233" height="22.5233" transform="rotate(45 16.364 3)" fill="#66A0FF"/>
<rect x="32.5115" y="3" width="22.5233" height="22.5233" transform="rotate(45 32.5115 3)" fill="#495EAD"/>
<rect x="24.4253" y="11.0886" width="11.0879" height="11.0879" transform="rotate(45 24.4253 11.0886)" fill="#163EAD"/>
<rect x="16.4758" y="3.24829" width="11.0879" height="11.0879" transform="rotate(45 16.4758 3.24829)" fill="#3381FF"/>
<path d="M62.7436 29L56.5859 7.18182H60.8366L64.7678 23.2152H64.9702L69.1676 7.18182H73.0348L77.2429 23.2259H77.4347L81.3658 7.18182H85.6165L79.4588 29H75.5597L71.1918 13.6911H71.0213L66.6428 29H62.7436ZM92.3095 7.18182V29H88.3571V7.18182H92.3095ZM95.6307 10.495V7.18182H113.038V10.495H106.295V29H102.374V10.495H95.6307ZM116.394 29V7.18182H120.347V16.4183H130.457V7.18182H134.42V29H130.457V19.7315H120.347V29H116.394ZM158.017 13.1797C157.918 12.2493 157.499 11.5249 156.76 11.0064C156.028 10.4879 155.077 10.2287 153.905 10.2287C153.081 10.2287 152.374 10.353 151.785 10.6016C151.195 10.8501 150.744 11.1875 150.432 11.6136C150.119 12.0398 149.96 12.5263 149.952 13.0732C149.952 13.5277 150.055 13.9219 150.261 14.2557C150.474 14.5895 150.762 14.8736 151.124 15.108C151.487 15.3352 151.888 15.527 152.328 15.6832C152.768 15.8395 153.212 15.9709 153.66 16.0774L155.705 16.5888C156.529 16.7805 157.321 17.0398 158.081 17.3665C158.848 17.6932 159.533 18.1051 160.137 18.6023C160.748 19.0994 161.231 19.6996 161.586 20.4027C161.941 21.1058 162.119 21.9297 162.119 22.8743C162.119 24.1527 161.792 25.2784 161.138 26.2514C160.485 27.2173 159.54 27.9737 158.305 28.5206C157.076 29.0604 155.588 29.3303 153.841 29.3303C152.143 29.3303 150.67 29.0675 149.42 28.5419C148.177 28.0163 147.204 27.2493 146.501 26.2408C145.805 25.2322 145.428 24.0036 145.371 22.5547H149.26C149.317 23.3146 149.551 23.9467 149.963 24.451C150.375 24.9553 150.911 25.3317 151.572 25.5803C152.239 25.8288 152.985 25.9531 153.809 25.9531C154.668 25.9531 155.421 25.8253 156.067 25.5696C156.721 25.3068 157.232 24.9446 157.602 24.483C157.971 24.0142 158.159 23.4673 158.166 22.8423C158.159 22.2741 157.992 21.8054 157.665 21.4361C157.339 21.0597 156.881 20.7472 156.291 20.4986C155.709 20.2429 155.027 20.0156 154.246 19.8168L151.763 19.1776C149.967 18.7159 148.546 18.0163 147.502 17.0788C146.465 16.1342 145.947 14.8807 145.947 13.3182C145.947 12.0327 146.295 10.907 146.991 9.94105C147.694 8.97514 148.649 8.22585 149.857 7.69318C151.064 7.15341 152.431 6.88352 153.958 6.88352C155.506 6.88352 156.863 7.15341 158.028 7.69318C159.2 8.22585 160.119 8.96804 160.787 9.91974C161.455 10.8643 161.799 11.951 161.82 13.1797H158.017ZM164.683 10.495V7.18182H182.091V10.495H175.347V29H171.427V10.495H164.683ZM199.2 7.18182H203.153V21.4361C203.153 22.9986 202.784 24.3729 202.045 25.5589C201.313 26.745 200.284 27.6719 198.955 28.3395C197.627 29 196.075 29.3303 194.3 29.3303C192.517 29.3303 190.962 29 189.634 28.3395C188.306 27.6719 187.276 26.745 186.544 25.5589C185.813 24.3729 185.447 22.9986 185.447 21.4361V7.18182H189.399V21.1058C189.399 22.0149 189.598 22.8246 189.996 23.5348C190.401 24.245 190.969 24.8026 191.7 25.2074C192.432 25.6051 193.298 25.804 194.3 25.804C195.301 25.804 196.168 25.6051 196.899 25.2074C197.638 24.8026 198.206 24.245 198.604 23.5348C199.002 22.8246 199.2 22.0149 199.2 21.1058V7.18182ZM214.842 29H207.449V7.18182H214.991C217.158 7.18182 219.018 7.61861 220.574 8.49219C222.136 9.35866 223.337 10.6051 224.175 12.2315C225.013 13.858 225.432 15.804 225.432 18.0696C225.432 20.3423 225.009 22.2955 224.164 23.929C223.326 25.5625 222.115 26.8161 220.531 27.6896C218.955 28.5632 217.058 29 214.842 29ZM211.401 25.5803H214.651C216.17 25.5803 217.438 25.3033 218.454 24.7493C219.469 24.1882 220.233 23.3537 220.744 22.2457C221.256 21.1307 221.511 19.7386 221.511 18.0696C221.511 16.4006 221.256 15.0156 220.744 13.9148C220.233 12.8068 219.477 11.9794 218.475 11.4325C217.481 10.8786 216.245 10.6016 214.768 10.6016H211.401V25.5803ZM226.465 7.18182H230.929L236.266 16.8338H236.479L241.817 7.18182H246.281L238.344 20.8608V29H234.402V20.8608L226.465 7.18182Z" fill="black"/>
</svg>
